<svg version="1.1" id="Layer_1" xmlns="http://www.w3.org/2000/svg" xmlns:xlink="http://www.w3.org/1999/xlink" x="0px" y="0px" viewBox="0 0 238.1 84.7" style="enable-background:new 0 0 238.1 84.7;" xml:space="preserve">
 <style type="text/css">
  .st0{fill:#FF6600;}
	.st1{fill:#FFFFFF;}
 </style>
 <rect class="st0" width="238.1" height="84.7">
 </rect>
 <g>
  <path class="st1" d="M42.6,44.2H30.3c-0.5,0-0.8,0.2-0.8,0.7c0,1.1,0.6,2.2,1.8,3.2c1.2,1,2.6,1.5,4,1.5c0.8,0,1.8-0.2,2.8-0.5
		s1.9-0.7,2.5-1.2c0.6-0.4,1.1-0.6,1.4-0.6c0.5,0,0.9,0.3,1.3,0.8c0.4,0.6,0.7,1.1,0.7,1.7c0,1.3-0.8,2.5-2.4,3.6
		c-2.8,2.1-6,3.1-9.6,3.1c-3.7,0-6.7-1.1-9.2-3.2c-1.2-1-2.2-2.3-3-3.8c-1-2-1.5-4-1.5-6.2c0-2.9,0.9-5.6,2.7-7.9
		c1.5-2,3.5-3.5,5.9-4.5c1.8-0.7,3.7-1.1,5.8-1.1c3.3,0,6.1,0.9,8.5,2.8c1.2,0.9,2.1,2.1,2.8,3.4c0.8,1.5,1.2,2.9,1.2,4.3
		c0,1.1-0.2,2.1-0.7,2.8C43.9,43.9,43.3,44.2,42.6,44.2z M31,39.4h2.6c1.1,0,1.7-0.5,1.7-1.5c0-0.9-0.3-1.7-0.8-2.3
		c-0.5-0.6-1.2-0.9-2.1-0.9c-1,0-1.7,0.4-2.3,1.2c-0.5,0.7-0.8,1.4-0.8,2.2c0,0.5,0.1,0.9,0.4,1.1C29.9,39.2,30.3,39.4,31,39.4z">
  </path>
  <path class="st1" d="M62.2,29.9c3,0,5.6,0.8,7.7,2.3C71,33,71.8,34,72.2,35c0.4,1.1,0.7,2.5,0.7,4.4l-0.1,3.9
		c0,2.7,0.2,4.5,0.6,5.3c0.2,0.4,0.4,0.6,0.5,0.7c0.2,0.1,0.5,0.2,1.1,0.3s0.8,0.5,0.8,1.1c0,0.8-0.3,1.7-1,2.6
		c-0.7,0.9-1.5,1.7-2.6,2.3c-1.3,0.8-2.7,1.2-4.1,1.2c-1.8,0-3.3-0.6-4.3-1.9c-0.4-0.5-0.7-0.7-1-0.7s-0.8,0.2-1.4,0.7
		c-1.7,1.3-3.7,1.9-5.9,1.9c-2.3,0-4.1-0.5-5.5-1.5c-0.9-0.7-1.7-1.6-2.2-2.6S47,50.6,47,49.4c0-1.8,0.7-3.4,2.2-4.8
		c2.3-2.2,5.7-3.3,10.3-3.3c1,0,1.7-0.1,1.9-0.3c0.3-0.2,0.4-0.7,0.4-1.4c0-1.8-0.2-3.2-0.6-4c-0.4-0.8-1-1.2-1.9-1.2
		c-0.5,0-1,0.2-1.4,0.5c-0.4,0.3-0.9,0.9-1.5,1.7c-1.6,2.2-3.2,3.3-4.9,3.3c-0.9,0-1.6-0.3-2.1-0.8s-0.8-1.2-0.8-2s0.3-1.7,1-2.5
		c0.7-0.8,1.6-1.6,2.7-2.2C55.5,30.7,58.8,29.9,62.2,29.9z M60.4,45c-0.8,0-1.4,0.3-2,0.9c-0.6,0.6-0.9,1.4-0.9,2.3
		c0,0.8,0.2,1.5,0.6,2c0.4,0.5,0.9,0.8,1.6,0.8c1.4,0,2.1-1.2,2.1-3.5c0-1-0.1-1.6-0.3-1.9C61.4,45.2,61,45.1,60.4,45z">
  </path>
  <path class="st1" d="M88.6,29.9c0.9,0,2.3,0.2,4.3,0.6c0.4,0.1,0.7,0.1,1,0.1s0.9-0.2,1.7-0.5c0.4-0.2,0.7-0.2,1-0.2
		c0.8,0,1.6,0.5,2.4,1.5c0.7,0.8,1.2,1.7,1.6,2.7s0.6,1.8,0.6,2.5s-0.2,1.3-0.7,1.7c-0.5,0.5-1.1,0.7-1.8,0.7
		c-0.6,0-1.2-0.1-1.6-0.4c-0.5-0.3-1.3-1-2.3-2c-1.1-1.1-2-1.6-2.8-1.6c-0.5,0-0.9,0.2-1.3,0.5c-0.4,0.4-0.5,0.8-0.5,1.3
		c0,0.9,0.8,1.7,2.5,2.4c2.9,1.3,5.2,2.8,6.8,4.3c1.3,1.3,2,2.9,2,4.9c0,2.4-1.1,4.4-3.2,6.1c-1.8,1.4-4.1,2.1-6.7,2.1
		c-0.7,0-1.9-0.1-3.7-0.3C86.2,56.1,85.3,56,85,56c-0.2,0-0.5,0-0.8,0.1c-0.5,0.1-0.9,0.1-1.1,0.1c-0.8,0-1.5-0.2-1.9-0.6
		c-0.7-0.6-1.4-1.7-2-3c-0.6-1.4-0.9-2.6-0.9-3.6c0-1.6,0.6-2.4,1.9-2.4c0.5,0,0.9,0.2,1.3,0.5c0.4,0.3,1.3,1.2,2.6,2.6
		c0.7,0.8,1.3,1.3,1.8,1.6c0.5,0.3,1,0.4,1.5,0.4c0.6,0,1-0.2,1.4-0.5c0.3-0.3,0.5-0.7,0.5-1.2c0-0.8-0.7-1.5-2-2.1
		c-2.8-1.4-4.8-2.8-6.1-4.3c-1.2-1.5-1.9-3.2-1.9-5.1c0-2.1,0.6-3.9,1.9-5.4C83,31,85.5,29.9,88.6,29.9z">
  </path>
  <path class="st1" d="M129.8,42.8l-3.5,9.5c-0.9,2.4-1.7,4.3-2.6,5.8s-1.8,2.8-2.9,3.8c-2.3,2.2-5,3.2-8.2,3.2c-2.6,0-4.7-0.7-6.3-2
		c-1.2-1-1.9-2.4-1.9-4c0-1.3,0.4-2.5,1.3-3.4s1.9-1.4,3.2-1.4c1.3,0,2.3,0.4,3,1.3c0.4,0.4,0.6,0.7,0.7,1s0.3,1,0.5,2
		c0.2,0.8,0.6,1.2,1.3,1.2c0.5,0,1-0.2,1.4-0.7s0.6-1.1,0.6-1.8c0-0.8-0.5-2.2-1.4-4.1l-6.1-13.5c-0.7-1.4-1.2-2.3-1.5-2.6
		c-0.3-0.3-1.1-0.8-2.2-1.3c-0.3-0.1-0.7-0.4-0.9-0.8c-0.3-0.4-0.4-0.8-0.4-1.2c0-1.6,1.5-2.6,4.6-3.2c2.1-0.4,4.4-0.5,7-0.5
		c1.8,0,3.3,0.2,4.4,0.6c1.4,0.5,2.1,1.4,2.1,2.6c0,0.4-0.2,1-0.6,1.5c-0.4,0.6-0.6,1.1-0.6,1.5c0,0.4,0.1,0.9,0.3,1.3
		c0.2,0.5,0.6,1.2,1.2,2.3c0.7,1.2,1.2,1.8,1.8,1.8c0.5,0,1.1-0.5,1.7-1.6c0.6-1.1,0.9-2.1,0.9-3.1c0-0.8-0.2-1.5-0.7-2
		c-0.7-0.8-1-1.5-1-2c0-0.9,0.6-1.6,1.8-2.1c1.2-0.5,2.8-0.8,4.8-0.8c3.7,0,5.5,0.9,5.5,2.7c0,0.6-0.2,1.2-0.6,1.6
		c-0.4,0.4-1.1,0.8-2.1,1.1c-0.8,0.3-1.5,0.8-2,1.6C131.7,38.2,130.8,40.1,129.8,42.8z">
  </path>
  <path class="st1" d="M157.6,19.7c2,0,3.9,0.2,6,0.5c1.7,0.3,2.8,0.7,3.6,1.2c0.7,0.5,1.1,1.2,1.1,2c0,0.5-0.1,1-0.4,1.3
		c-0.3,0.3-0.8,0.7-1.7,1.1c-1,0.5-1.6,1.1-1.7,1.8c-0.1,0.7-0.3,3.4-0.4,8.2c-0.1,4.6-0.1,7.4-0.1,8.3c0,0.9-0.2,1.8-0.3,2.7
		c-0.5,2.5-1.5,4.5-3.1,6c-1.3,1.2-2.9,2.1-4.8,2.8c-2,0.7-4,1-6.2,1c-1.9,0-3.9-0.3-5.8-0.8c-1.9-0.5-3.6-1.2-5.1-2.1
		c-1.2-0.7-2.1-1.7-2.8-3c-0.7-1.2-1-2.6-1-4c0-1.7,0.5-3.2,1.6-4.3c1.1-1.1,2.5-1.7,4.1-1.7c1.6,0,3,0.5,4.1,1.4
		c1.1,1,1.7,2.2,1.7,3.6c0,0.4-0.1,1-0.3,1.8c0,0.2-0.1,0.4-0.1,0.6c0,0.6,0.2,1,0.6,1.4c0.4,0.3,0.9,0.5,1.6,0.5
		c1.2,0,2.1-0.5,2.8-1.6c0.7-1,1.1-2.4,1.1-4.1v-2.4l-0.1-6.4c-0.2-3.9-0.3-6.2-0.4-6.9c-0.1-0.7-0.3-1.3-0.6-1.7
		c-0.3-0.3-0.5-0.6-0.7-0.7c-0.2-0.1-0.7-0.3-1.6-0.5c-0.4-0.1-0.8-0.3-1.1-0.7s-0.4-0.8-0.4-1.3c0-0.9,0.4-1.7,1.1-2.3
		c0.7-0.6,1.9-1,3.6-1.4C153.7,19.9,155.6,19.7,157.6,19.7z">
  </path>
  <path class="st1" d="M192.5,44.2h-12.3c-0.5,0-0.8,0.2-0.8,0.7c0,1.1,0.6,2.2,1.8,3.2s2.6,1.5,4,1.5c0.8,0,1.8-0.2,2.8-0.5
		s1.9-0.7,2.5-1.2c0.6-0.4,1.1-0.6,1.4-0.6c0.5,0,0.9,0.3,1.3,0.8c0.4,0.6,0.7,1.1,0.7,1.7c0,1.3-0.8,2.5-2.4,3.6
		c-2.8,2.1-6,3.1-9.6,3.1c-3.7,0-6.7-1.1-9.2-3.2c-1.2-1-2.2-2.3-3-3.8c-1-2-1.5-4-1.5-6.2c0-2.9,0.9-5.6,2.7-7.9
		c1.5-2,3.5-3.5,5.9-4.5c1.8-0.7,3.7-1.1,5.8-1.1c3.3,0,6.1,0.9,8.5,2.8c1.2,0.9,2.1,2.1,2.8,3.4c0.8,1.5,1.2,2.9,1.2,4.3
		c0,1.1-0.2,2.1-0.7,2.8C193.8,43.9,193.2,44.2,192.5,44.2z M180.9,39.4h2.6c1.1,0,1.7-0.5,1.7-1.5c0-0.9-0.3-1.7-0.8-2.3
		c-0.5-0.6-1.2-0.9-2.1-0.9c-1,0-1.7,0.4-2.3,1.2c-0.5,0.7-0.8,1.4-0.8,2.2c0,0.5,0.1,0.9,0.4,1.1C179.8,39.2,180.2,39.4,180.9,39.4
		z">
  </path>
  <path class="st1" d="M211.9,36.8v8.8c0,1,0.3,1.9,0.8,2.6s1.2,1,2,1c0.7,0,1.6-0.3,2.7-0.9c0.3-0.2,0.5-0.2,0.8-0.2
		c0.4,0,0.8,0.3,1.1,0.8c0.4,0.5,0.5,1.1,0.5,1.7c0,1.1-0.6,2.1-1.8,3.1c-2.5,2.1-5.5,3.2-9,3.2c-2.8,0-5-0.8-6.7-2.4
		s-2.5-3.7-2.5-6.2V36c0-0.4,0-0.7-0.1-0.7c-0.1-0.1-0.3-0.1-0.7-0.1h-2.7c-0.5,0-0.8-0.1-1-0.2c-0.1-0.2-0.2-0.6-0.2-1.2v-1.2
		c0-0.5,0.2-0.9,0.6-1.2l12-7.5c0.3-0.2,0.7-0.2,1.1-0.2h2.1c0.4,0,0.7,0.1,0.9,0.3c0.1,0.2,0.2,0.6,0.2,1.2v3.5
		c0,0.5,0.1,0.9,0.2,1c0.2,0.2,0.5,0.2,1.1,0.2h4.8c0.6,0,1.1,0.1,1.3,0.4c0.2,0.2,0.3,0.7,0.3,1.5v1.5c0,0.8-0.1,1.4-0.4,1.7
		c-0.2,0.3-0.7,0.5-1.3,0.5h-4.7c-0.5,0-0.8,0.1-1,0.3C212,35.9,211.9,36.3,211.9,36.8z">
  </path>
 </g>
</svg>